Coordinates
version=1
nRows=26
nColumns=22
inDegrees=yes

Units are S.I. units (second, meters, Newtons, ...)
If the header above contains a line with 'inDegrees', this indicates whether rotational values are in degrees (yes) or radians (no).

endheader
time	pelvis_tilt	pelvis_list	pelvis_rotation	pelvis_tx	pelvis_ty	pelvis_tz	hip_flexion_r	hip_adduction_r	hip_rotation_r	knee_angle_r	ankle_angle_r	subtalar_angle_r	hip_flexion_l	hip_adduction_l	hip_rotation_l	knee_angle_l	ankle_angle_l	subtalar_angle_l	lumbar_extension	lumbar_bending	lumbar_rotation
      5.55000000	      0.66686581	     -2.25468366	    307.03335483	     -0.46394241	      1.06125516	      0.65859320	     21.61421688	     -3.53850768	      1.64781694	    -21.18826142	      9.31494952	      9.28044635	     -8.68972426	      7.90764126	     11.45082180	    -12.92359942	     16.41098259	    -15.30981884	     -5.02298688	     -2.97018366	     -8.96453227
      5.56000000	      0.43167027	     -2.33949101	    307.53197070	     -0.46030789	      1.05997079	      0.66552771	     21.55377525	     -3.02723913	      1.50854918	    -18.79734504	      9.36236076	     10.04622165	     -8.84923151	      7.50948774	     11.89616874	    -13.39453766	     16.90655909	    -15.27184584	     -5.01577315	     -2.68910237	     -8.85761347
      5.57000000	      0.19185153	     -2.44693418	    308.02678907	     -0.45659606	      1.05865880	      0.67253735	     21.42413883	     -2.49092246	      1.46488737	    -16.40322611	      9.44685003	     10.91704943	     -9.02160448	      7.09020801	     12.32796975	    -13.87406969	     17.39270800	    -15.22075553	     -5.01986426	     -2.38137511	     -8.74290328
      5.58000000	     -0.04599883	     -2.56689644	    308.52447509	     -0.45277556	      1.05732225	      0.67964493	     21.23308694	     -1.94799903	      1.55189856	    -14.03512942	      9.56372003	     11.84475432	     -9.20756339	      6.65950244	     12.74881709	    -14.35495256	     17.85905391	    -15.15633153	     -5.02420640	     -2.06394420	     -8.63003855
      5.59000000	     -0.27189897	     -2.68881152	    309.02557754	     -0.44879358	      1.05596599	      0.68685876	     20.98971612	     -1.42420050	      1.79237350	    -11.72830479	      9.68978568	     12.80402540	     -9.41312170	      6.23328511	     13.16082914	    -14.82574696	     18.28988925	    -15.07159366	     -5.02019307	     -1.74921258	     -8.51887842
      5.60000000	     -0.48226153	     -2.79952294	    309.53476961	     -0.44458895	      1.05458781	      0.69420309	     20.71253017	     -0.94328898	      2.18987314	     -9.53260323	      9.80909447	     13.74577098	     -9.63841985	      5.82202159	     13.56716911	    -15.27577070	     18.67406129	    -14.96245524	     -4.98993824	     -1.44806057	     -8.41933638
      5.61000000	     -0.67330767	     -2.88550162	    310.05677500	     -0.44010684	      1.05318934	      0.70170055	     20.42718089	     -0.52763286	      2.73229748	     -7.51456296	      9.91490491	     14.63053026	     -9.88339799	      5.43665400	     13.97610139	    -15.69413025	     18.99778667	    -14.82054821	     -4.91671642	     -1.17277688	     -8.34001677
      5.62000000	     -0.84727912	     -2.94449739	    310.59148703	     -0.43532369	      1.05177275	      0.70936678	     20.16363313	     -0.18043096	      3.38919176	     -5.75798935	     10.01921088	     15.39866353	    -10.14711125	      5.07647916	     14.38680219	    -16.08015286	     19.27938383	    -14.64651692	     -4.79348880	     -0.92296557	     -8.28596286
      5.63000000	     -1.00593568	     -2.96453974	    311.13648153	     -0.43026877	      1.05034313	      0.71717974	     19.96618524	      0.09517256	      4.13592336	     -4.35049649	     10.11930306	     16.02824141	    -10.41460025	      4.74833736	     14.80273351	    -16.43723908	     19.48574834	    -14.42629309	     -4.61404114	     -0.70753442	     -8.26194159
      5.64000000	     -1.15520825	     -2.95320358	    311.68196218	     -0.42501287	      1.04892446	      0.72513438	     19.85800869	      0.32256128	      4.93823796	     -3.35636502	     10.20740722	     16.48172270	    -10.67984534	      4.44035627	     15.19407489	    -16.77270294	     19.60996306	    -14.16521242	     -4.38735043	     -0.52121072	     -8.26315593
      5.65000000	     -1.26668260	     -2.91721432	    312.21614350	     -0.41967262	      1.04755037	      0.73315344	     19.85482542	      0.50247834	      5.80362120	     -2.85367344	     10.30312104	     16.79774195	    -10.96010388	      4.17678097	     15.60115387	    -17.09537100	     19.71175435	    -13.82985711	     -4.16401995	     -0.38626344	     -8.27599570
      5.66000000	     -1.36821556	     -2.87725019	    312.72882184	     -0.41431580	      1.04625644	      0.74125374	     19.94775780	      0.68866129	      6.71972469	     -2.81447292	     10.32813460	     16.93161265	    -11.23294885	      3.91783456	     15.95595520	    -17.43133049	     19.72465108	    -13.45839370	     -3.94420346	     -0.26827586	     -8.29324326
      5.67000000	     -1.45579564	     -2.84867131	    313.22490303	     -0.40897037	      1.04508015	      0.74940955	     20.11732628	      0.89956602	      7.68764594	     -3.21468264	     10.24490836	     16.92718770	    -11.50955093	      3.65750664	     16.28604909	    -17.78551375	     19.69097601	    -13.02469351	     -3.75135317	     -0.15731978	     -8.32026558
      5.68000000	     -1.54026552	     -2.84612899	    313.71190994	     -0.40362939	      1.04405855	      0.75763372	     20.32829365	      1.15872614	      8.70539174	     -3.96748550	      9.98630788	     16.81237176	    -11.78417731	      3.37641847	     16.58861300	    -18.17461339	     19.59296190	    -12.54215162	     -3.58699516	     -0.03575047	     -8.35739954
      5.69000000	     -1.63093209	     -2.88269827	    314.20546941	     -0.39825336	      1.04323065	      0.76591677	     20.54705609	      1.47938596	      9.75272939	     -4.97990640	      9.50807852	     16.62690361	    -12.05085394	      3.05856096	     16.87237665	    -18.61446705	     19.42211767	    -12.01235808	     -3.44973326	      0.11957288	     -8.40987505
      5.70000000	     -1.73701708	     -2.96866372	    314.72128057	     -0.39282089	      1.04263466	      0.77425100	     20.74324623	      1.86813479	     10.79433484	     -6.15019525	      8.78563293	     16.40632295	    -12.29639500	      2.68869963	     17.13607559	    -19.12719412	     19.17022881	    -11.43830279	     -3.33732307	      0.32130674	     -8.49008242
      5.71000000	     -1.86245483	     -3.10584858	    315.28620656	     -0.38727404	      1.04231199	      0.78260005	     20.89567103	      2.31118273	     11.76711684	     -7.39155386	      7.86979479	     16.15497106	    -12.50705723	      2.26192499	     17.40740259	    -19.72995767	     18.81237058	    -10.77512833	     -3.24064063	      0.57928337	     -8.62745163
      5.72000000	     -2.01039480	     -3.30374823	    315.88558787	     -0.38160723	      1.04228417	      0.79094662	     21.00771794	      2.81275782	     12.59120360	     -8.67166594	      6.82357320	     15.90767450	    -12.67648071	      1.77645116	     17.65631137	    -20.43855409	     18.35952527	    -10.07877986	     -3.16224513	      0.90627534	     -8.77786008
      5.73000000	     -2.17373110	     -3.54987836	    316.54104623	     -0.37576405	      1.04256630	      0.79923037	     21.07790532	      3.33448794	     13.18781778	     -9.94838182	      5.74838089	     15.65541950	    -12.78615679	      1.24674392	     17.89420661	    -21.26855112	     17.78254466	     -9.30111999	     -3.09289670	      1.29295141	     -8.97559487
      5.74000000	     -2.32989166	     -3.81534820	    317.24288693	     -0.36973265	      1.04315863	      0.80745321	     21.11142712	      3.83055104	     13.52948963	    -11.20422125	      4.78518056	     15.36628572	    -12.83274766	      0.71453199	     18.12548612	    -22.21196669	     17.02478245	     -8.32867972	     -3.02288065	      1.69451885	     -9.20663481
      5.75000000	     -2.47455824	     -4.09667033	    317.98934829	     -0.36350935	      1.04403065	      0.81557267	     21.11101336	      4.28281855	     13.56620199	    -12.42624104	      3.95488573	     15.06394336	    -12.80184702	      0.18660336	     18.31332531	    -23.28818156	     16.12797280	     -7.24517165	     -2.95653047	      2.10741282	     -9.45365159
      5.76000000	     -2.59684961	     -4.37225406	    318.78040120	     -0.35709457	      1.04515300	      0.82358302	     21.06562160	      4.66087107	     13.33266181	    -13.57665363	      3.33125988	     14.70516010	    -12.68876077	     -0.31693642	     18.45374736	    -24.48296881	     15.06079640	     -5.99758791	     -2.88493746	      2.50296895	     -9.71614806
      5.77000000	     -2.69023684	     -4.62987746	    319.61967101	     -0.35051256	      1.04649146	      0.83146441	     20.95273208	      4.95065606	     12.89498360	    -14.60836535	      2.92985096	     14.25151410	    -12.48769149	     -0.78874773	     18.53415179	    -25.78784642	     13.82724702	     -4.58999127	     -2.80785965	      2.86463690	     -9.99237946
      5.78000000	     -2.75893959	     -4.86457135	    320.49893857	     -0.34381695	      1.04801712	      0.83923394	     20.75369294	      5.16447036	     12.33696817	    -15.47960139	      2.73455178	     13.65497034	    -12.19907591	     -1.23181967	     18.55670819	    -27.18041512	     12.42837853	     -3.02804748	     -2.72086780	      3.18084562	    -10.26193817
      5.79000000	     -2.79842050	     -5.07276199	    321.42858230	     -0.33705560	      1.04970808	      0.84683488	     20.44614281	      5.30301107	     11.71754063	    -16.15219697	      2.67821369	     12.88930008	    -11.81503779	     -1.64833494	     18.51294475	    -28.65849274	     10.88465763	     -1.37710203	     -2.63440374	      3.44758788	    -10.53001943
      5.80000000	     -2.81098758	     -5.26000507	    322.40941621	     -0.33028018	      1.05152802	      0.85423842	     20.03227147	      5.38425791	     11.04921679	    -16.63406340	      2.72119796	     11.94307830	    -11.33932271	     -2.04714557	     18.41746201	    -30.20834628	      9.22371118	      0.27773907	     -2.55700786	      3.66799134	    -10.78924724
